<?xml version="1.0" encoding="UTF-8" standalone="no"?>
<!--Created with Inkscape (http://www.inkscape.org/)-->
<svg xmlns="http://www.w3.org/2000/svg" xmlns:cc="http://creativecommons.org/ns#" xmlns:dc="http://purl.org/dc/elements/1.1/" xmlns:inkscape="http://www.inkscape.org/namespaces/inkscape" xmlns:rdf="http://www.w3.org/1999/02/22-rdf-syntax-ns#" xmlns:sodipodi="http://sodipodi.sourceforge.net/DTD/sodipodi-0.dtd" xmlns:svg="http://www.w3.org/2000/svg" id="svg2" width="420" height="420" version="1.1" viewBox="0 0 320 320" inkscape:version="0.91 r13725" sodipodi:docname="drawing-2.svg">
   <style>
      #layer4{ 
      animation: movemove 3s ease infinite; 
      }
      #g4467{
         animation: hideshow 2s ease infinite; 
      }

      @keyframes hideshow {
         0% {
            opacity:0;

         }
         60% {
            opacity:1;
            
         }
      }
      
      @keyframes movemove {
       0% { transform: translateX(0) translateY(0); }

       50% {  transform: translateX(20px) translateY(0);}

       100% {  transform: translateX(0) translateY(0);}
       }
   </style>
   <defs id="defs4">
      <clipPath id="clipPath300" clipPathUnits="userSpaceOnUse">
         <path id="path302" d="m 543,481.003 17.502,0 0,-18 -17.502,0 0,18 z" inkscape:connector-curvature="0"/>
      </clipPath>
      <clipPath id="clipPath286" clipPathUnits="userSpaceOnUse">
         <path id="path288" d="m 543,508.003 38.002,0 0,-18 -38.002,0 0,18 z" inkscape:connector-curvature="0"/>
      </clipPath>
      <clipPath id="clipPath272" clipPathUnits="userSpaceOnUse">
         <path id="path274" d="m 543,535.501 73.502,0 0,-18 -73.502,0 0,18 z" inkscape:connector-curvature="0"/>
      </clipPath>
      <clipPath id="clipPath258" clipPathUnits="userSpaceOnUse">
         <path id="path260" d="m 543,564 108,0 0,-18 -108,0 0,18 z" inkscape:connector-curvature="0"/>
      </clipPath>
   </defs>
   <sodipodi:namedview id="base" bordercolor="#666666" borderopacity="1.0" pagecolor="#909090" showgrid="false" units="px" inkscape:current-layer="layer3" inkscape:cx="234.00057" inkscape:cy="177.94826" inkscape:document-units="px" inkscape:pageopacity="0" inkscape:pageshadow="2" inkscape:window-height="747" inkscape:window-maximized="1" inkscape:window-width="1334" inkscape:window-x="32" inkscape:window-y="21" inkscape:zoom="1.1600971"/>
   <metadata id="metadata7">
      <rdf:RDF>
         <cc:Work rdf:about="">
            <dc:format>
               image/svg+xml
            </dc:format>
            <dc:type rdf:resource="http://purl.org/dc/dcmitype/StillImage"/>
            <dc:title/>
         </cc:Work>
      </rdf:RDF>
   </metadata>
   <g id="layer3" style="display:inline" transform="translate(0,-632.36216)" inkscape:groupmode="layer" inkscape:label="Layer 3">
      <g id="g26" transform="matrix(1.0220676,0,0,-1.0473598,248.53959,814.17466)">
         <path id="path28" d="m 0,0 c 0,0 -3.664,-7.327 -6.106,-13.433 2.442,-6.106 8.548,-16.486 8.548,-16.486 l 17.403,12.212 c 0,0 -3.664,4.579 -0.916,18.318 C 16.486,3.053 0,0 0,0" style="fill:#da896f;fill-opacity:1;fill-rule:nonzero;stroke:none" inkscape:connector-curvature="0"/>
      </g>
      <g id="g34" transform="matrix(1.0220676,0,0,-1.0473598,242.29885,828.24404)">
         <path id="path36" d="m 0,0 7.327,-10.991 18.318,8.549 c 0,0 22.592,-3.053 36.026,-14.044 0,0 -29.92,-97.696 -25.035,-139.828 0,0 -34.194,-12.822 -70.219,-0.61 0,0 -4.274,94.032 4.885,134.942 1.832,2.443 -0.611,10.991 -0.611,10.991 0,0 10.991,7.938 29.309,10.991" style="fill:#f2f3cd;fill-opacity:1;fill-rule:nonzero;stroke:none" inkscape:connector-curvature="0"/>
      </g>
      <g id="g38" style="fill:#ff6600" transform="matrix(1.0220676,0,0,-1.0473598,235.02683,727.0074)">
         <path id="path40" d="m 0,0 c 0,0 -10.526,-7.633 -9.896,-15.795 0.63,-8.161 9.812,-28.925 9.812,-28.925 0,0 13.85,34.92 0.084,44.72" style="fill:#ff6600;fill-opacity:1;fill-rule:nonzero;stroke:none" inkscape:connector-curvature="0"/>
      </g>
      <g id="g42" transform="matrix(1.0220676,0,0,-1.0473598,298.66709,788.64725)">
         <path id="path44" d="m 0,0 c -10.328,-24.922 -35.004,-30.869 -47.03,-27.25 -12.026,3.618 -24.538,18.441 -20.92,30.467 3.619,12.026 3.037,21.202 1.729,36.51 -1.308,15.309 12.356,24.826 12.356,24.826 0,0 25.205,17.103 50.757,-1.386 C 22.444,44.677 0,0 0,0" style="fill:#e5ae81;fill-opacity:1;fill-rule:nonzero;stroke:none" inkscape:connector-curvature="0"/>
      </g>
      <g id="g46" transform="matrix(1.0220676,0,0,-1.0473598,298.07226,779.03698)">
         <path id="path48" d="M 0,0 C 0,0 12.938,15.651 15.405,3.336 17.871,-8.978 -9.362,-25.984 0,0" style="fill:#da896f;fill-opacity:1;fill-rule:nonzero;stroke:none" inkscape:connector-curvature="0"/>
      </g>
      <g id="g50" transform="matrix(1.0220676,0,0,-1.0473598,289.29341,744.18955)">
         <path id="path52" d="m 0,0 c 0,0 3.772,-20.508 3.324,-29.973 -0.448,-9.466 -4.789,-29.589 -31.605,-37.806 -10.142,0.48 -22.732,6.497 -22.732,6.497 0,0 6.957,-10.494 21.187,-10.49 14.231,0.004 31.614,9.345 39.207,26.604 5.469,15.327 8.134,42.983 8.134,42.983 L 0,0 Z" style="fill:#da896f;fill-opacity:1;fill-rule:nonzero;stroke:none" inkscape:connector-curvature="0"/>
      </g>
      <g id="g54" style="fill:#ff6600" transform="matrix(1.0220676,0,0,-1.0473598,269.03674,732.91586)">
         <path id="path56" d="M 0,0 C 0,0 -18.105,-17.439 -27.911,-9.859 -37.716,-2.28 -57.04,18.964 -42.025,35.532 -27.01,52.101 23.17,38.544 40.081,9.283 37.812,4.308 33.708,3.486 33.708,3.486 c 0,0 8.887,-5.503 9.565,-12.65 -0.288,-6.085 -7.477,-29.123 -7.477,-29.123 0,0 -6.277,-3.768 -10.814,-13.718 l -3.961,2.22 8.492,29.075 L 0,0 Z" style="fill:#ff6600;fill-opacity:1;fill-rule:nonzero;stroke:none" inkscape:connector-curvature="0"/>
      </g>
      <g id="g58" style="fill:#ff9955" transform="matrix(1.0220676,0,0,-1.0473598,243.21114,692.27328)">
         <path id="path60" d="m 0,0 c 0,0 -17.643,-0.52 -17.575,-13.398 3.448,-13.038 64.363,-14.567 64.523,-11.186 0.16,3.38 -28.401,15.574 -25.664,16.122 2.736,0.548 26.048,-8.009 33.777,-16.507 C 53.257,-20.14 37.218,-1.084 0,0" style="fill:#ff9955;fill-opacity:1;fill-rule:nonzero;stroke:none" inkscape:connector-curvature="0"/>
      </g>
      <g id="g62" style="fill:#ff9955" transform="matrix(1.0220676,0,0,-1.0473598,299.59063,734.93057)">
         <path id="path64" d="m 0,0 c 0,0 8.716,1.62 8.791,-7.531 -0.408,-8.621 -4.489,-8.936 -7.459,-7.271 -2.97,1.666 -21.18,14.217 -14.105,13.374 C -5.698,-2.271 0,0 0,0" style="fill:#ff9955;fill-opacity:1;fill-rule:nonzero;stroke:none" inkscape:connector-curvature="0"/>
      </g>
      <g id="g66" style="fill:#ff6600" transform="matrix(1.0220676,0,0,-1.0473598,258.48993,760.4097)">
         <path id="path68" d="M 0,0 C 0,0 13.46,0.353 19.499,-2.347 19.16,0.592 10.101,4.642 7.011,4.829 3.921,5.016 0,0 0,0" style="fill:#ff6600;fill-opacity:1;fill-rule:nonzero;stroke:none" inkscape:connector-curvature="0"/>
      </g>
      <g id="g70" style="fill:#ff6600" transform="matrix(1.0220676,0,0,-1.0473598,245.51549,758.5699)">
         <path id="path72" d="m 0,0 c 0,0 -9.943,-0.92 -14.154,-3.438 -0.008,2.194 6.308,5.971 8.567,6.379 C -3.328,3.35 0,0 0,0" style="fill:#ff6600;fill-opacity:1;fill-rule:nonzero;stroke:none" inkscape:connector-curvature="0"/>
      </g>
      <g id="g74" style="fill:#008080" transform="matrix(1.0220676,0,0,-1.0473598,266.65042,769.30063)">
         <path id="path76" d="m 0,0 c -0.088,-1.863 -1.083,-3.33 -2.221,-3.276 -1.139,0.054 -1.99,1.608 -1.902,3.471 0.088,1.863 1.083,3.33 2.221,3.276 C -0.763,3.417 0.088,1.863 0,0" style="fill:#008080;fill-opacity:1;fill-rule:nonzero;stroke:none" inkscape:connector-curvature="0"/>
      </g>
      <g id="g78" style="fill:#008080" transform="matrix(1.0220676,0,0,-1.0473598,241.7505,768.0926)">
         <path id="path80" d="m 0,0 c -0.088,-1.863 -1.083,-3.33 -2.221,-3.276 -1.139,0.054 -1.99,1.608 -1.902,3.471 0.088,1.863 1.083,3.33 2.221,3.276 C -0.763,3.417 0.088,1.863 0,0" style="fill:#008080;fill-opacity:1;fill-rule:nonzero;stroke:none" inkscape:connector-curvature="0"/>
      </g>
      <g id="g82" transform="matrix(1.0220676,0,0,-1.0473598,246.30729,779.11429)">
         <path id="path84" d="m 0,0 -16.843,4.542 c 0,0 2.218,-14.667 13.583,-11.877 C 0.516,-6.681 0,0 0,0" style="fill:#da896f;fill-opacity:1;fill-rule:nonzero;stroke:none" inkscape:connector-curvature="0"/>
      </g>
      <g id="g86" transform="matrix(1.0220676,0,0,-1.0473598,240.39064,793.02228)">
         <path id="path88" d="m 0,0 c 0,0 8.854,-1.791 21.785,4.296 0,0 -0.539,-11.693 -13.208,-13.441 0,0 -7.834,0.641 -8.577,9.145" style="fill:#f2f3cd;fill-opacity:1;fill-rule:nonzero;stroke:none" inkscape:connector-curvature="0"/>
      </g>
      <g id="g90" transform="matrix(1.0220676,0,0,-1.0473598,294.09702,958.49266)">
         <path id="path92" d="m 0,0 c 0,0 -8.548,-4.071 -10.991,-2.849 -2.442,1.221 -1.221,7.327 -1.221,7.327 0,0 -13.026,-4.071 -11.805,-1.629 1.221,2.443 6.92,3.664 6.92,3.664 0,0 -8.548,-1.221 -6.92,0.407 1.628,1.628 7.734,2.85 7.734,2.85 0,0 -8.548,-1.222 -6.513,0.814 2.036,2.035 7.327,2.035 7.327,2.035 0,0 -6.513,0.407 -4.884,2.035 1.628,1.629 9.362,2.036 12.619,0 3.256,-2.035 4.477,-10.176 4.477,-10.176 L 1.221,3.664 0,0 Z" style="fill:#e5ae81;fill-opacity:1;fill-rule:nonzero;stroke:none" inkscape:connector-curvature="0"/>
      </g>
      <g id="g94" transform="matrix(1.0220676,0,0,-1.0473598,305.33037,845.51103)">
         <path id="path96" d="m 0,0 c 0,0 39.689,-43.353 48.848,-75.714 1.221,-5.496 -39.078,-34.805 -61.06,-35.415 1.221,1.831 -3.664,4.884 -1.221,13.433 0,0 32.972,10.991 35.415,26.866 -1.832,7.328 -18.929,37.247 -37.858,39.079 C -34.804,-29.919 0,0 0,0" style="fill:#f2f3cd;fill-opacity:1;fill-rule:nonzero;stroke:none" inkscape:connector-curvature="0"/>
      </g>
      <g id="g98" transform="matrix(1.0220676,0,0,-1.0473598,212.34326,839.75536)">
         <path id="path100" d="m 0,0 c 0,0 -39.282,-25.442 -42.539,-25.442 4.071,6.513 20.761,60.246 22.389,70.83 -1.628,2.442 -14.654,5.699 -14.654,5.699 0,0 -27.274,-87.112 -30.53,-96.068 3.256,-0.814 56.175,8.956 69.201,21.168 C 11.194,-18.929 0,0 0,0" style="fill:#f2f3cd;fill-opacity:1;fill-rule:nonzero;stroke:none" inkscape:connector-curvature="0"/>
      </g>
      <g id="g102" transform="matrix(1.0220676,0,0,-1.0473598,78.16704,745.10661)">
         <path id="path104" d="m 0,0 64.724,-4.274 c 0,0 11.601,-21.371 -1.832,-40.3 L -1.832,-45.795 0,0 Z" style="fill:#584c49;fill-opacity:1;fill-rule:nonzero;stroke:none" inkscape:connector-curvature="0"/>
      </g>
      <g id="g106" transform="matrix(1.0220676,0,0,-1.0473598,154.30424,757.89697)">
         <path id="path108" d="m 0,0 65.334,-7.327 0,-4.885 L -3.053,-25.645 0,0 Z" style="fill:#584c49;fill-opacity:1;fill-rule:nonzero;stroke:none" inkscape:connector-curvature="0"/>
      </g>
      <g id="g110" transform="matrix(1.0220676,0,0,-1.0473598,188.42034,790.93877)">
         <path id="path112" d="m 0,0 c 0,0 7.327,10.177 4.071,13.026 -3.257,2.85 -21.982,-1.628 -21.982,-1.628 0,0 4.071,-4.071 10.177,-4.885 C -6.106,6.106 -6.92,0.814 -6.92,0.814 L 0,0 Z" style="fill:#e5ae81;fill-opacity:1;fill-rule:nonzero;stroke:none" inkscape:connector-curvature="0"/>
      </g>
      <g id="g114" transform="matrix(1.0220676,0,0,-1.0473598,192.99686,782.83827)">
         <path id="path116" d="m 0,0 4.274,3.969 c 0,0 7.022,0.611 8.549,0.611 1.526,0.305 0,5.19 -3.053,4.884 C 6.717,9.159 0.916,6.106 0.916,6.106 l -5.801,0 L 0,0 Z" style="fill:#e5ae81;fill-opacity:1;fill-rule:nonzero;stroke:none" inkscape:connector-curvature="0"/>
      </g>
      <g id="g118" transform="matrix(1.0220676,0,0,-1.0473598,225.13679,765.57129)">
         <path id="path120" d="M 0,0 2.442,0.611 8.548,4.58 c 0,0 4.885,-4.58 0.611,-10.991 -1.526,0.916 -6.106,2.747 -6.106,2.747 L -1.221,-4.274 0,0 Z" style="fill:#584c49;fill-opacity:1;fill-rule:nonzero;stroke:none" inkscape:connector-curvature="0"/>
      </g>
      <g id="g122" transform="matrix(1.0220676,0,0,-1.0473598,142.44682,791.79153)">
         <path id="path124" d="m 0,0 c 3.654,5.149 5.446,10.476 6.133,15.507 -7.974,0.306 -61.788,2.344 -62.919,1.59 L -63.699,-1.202 0,0 Z" style="fill:#453436;fill-opacity:1;fill-rule:nonzero;stroke:none" inkscape:connector-curvature="0"/>
      </g>
      <g id="g146" transform="matrix(1.0220676,0,0,-1.0473598,151.18387,784.75672)">
         <path id="path148" d="m 0,0 68.387,13.433 0,2.472 L 1.438,12.079 0,0 Z" style="fill:#453436;fill-opacity:1;fill-rule:nonzero;stroke:none" inkscape:connector-curvature="0"/>
      </g>
      <g id="g150" transform="matrix(1.0220676,0,0,-1.0473598,134.74984,744.89347)">
         <path id="path152" d="m 0,0 c 0,0 9.363,-12.619 0.407,-48.848 l 20.76,2.035 c 0,0 7.735,27.681 0,43.556 L 0,0 Z" style="fill:#5b6a76;fill-opacity:1;fill-rule:nonzero;stroke:none" inkscape:connector-curvature="0"/>
      </g>
      <g id="g154" transform="matrix(1.0220676,0,0,-1.0473598,159.69871,773.25336)">
         <path id="path156" d="m 0,0 -20.408,-0.48 c -0.462,-5.952 -1.545,-12.995 -3.595,-21.291 l 20.76,2.036 c 0,0 2.52,9.032 3.243,19.735" style="fill:#4c4f62;fill-opacity:1;fill-rule:nonzero;stroke:none" inkscape:connector-curvature="0"/>
      </g>
      <g id="g158" transform="matrix(1.0220676,0,0,-1.0473598,170.53017,759.81553)">
         <path id="path160" d="M 0,0 C 0,0 2.849,6.92 5.699,5.292 8.548,3.664 10.584,-8.548 7.327,-9.77 4.071,-10.991 4.478,-0.407 4.478,-0.407 L 0,0 Z" style="fill:#e5ae81;fill-opacity:1;fill-rule:nonzero;stroke:none" inkscape:connector-curvature="0"/>
      </g>
      <g id="g162" transform="matrix(1.0220676,0,0,-1.0473598,177.08296,760.45504)">
         <path id="path164" d="M 0,0 C 0,0 2.849,6.92 5.699,5.292 8.548,3.664 10.584,-8.548 7.327,-9.77 4.071,-10.991 4.478,-0.407 4.478,-0.407 L 0,0 Z" style="fill:#e5ae81;fill-opacity:1;fill-rule:nonzero;stroke:none" inkscape:connector-curvature="0"/>
      </g>
      <g id="g166" transform="matrix(1.0220676,0,0,-1.0473598,183.3237,761.09456)">
         <path id="path168" d="M 0,0 C 0,0 2.849,6.92 5.699,5.292 8.548,3.664 10.584,-8.548 7.327,-9.77 4.071,-10.991 4.478,-0.407 4.478,-0.407 L 0,0 Z" style="fill:#e5ae81;fill-opacity:1;fill-rule:nonzero;stroke:none" inkscape:connector-curvature="0"/>
      </g>
      <g id="g170" transform="matrix(1.0220676,0,0,-1.0473598,188.94037,762.05383)">
         <path id="path172" d="M 0,0 C 0,0 2.849,6.92 5.699,5.292 8.548,3.664 10.584,-8.548 7.327,-9.77 4.071,-10.991 4.478,-0.407 4.478,-0.407 L 0,0 Z" style="fill:#e5ae81;fill-opacity:1;fill-rule:nonzero;stroke:none" inkscape:connector-curvature="0"/>
      </g>
      <g id="g174" transform="matrix(1.0220676,0,0,-1.0473598,219.83216,763.65263)">
         <path id="path176" d="m 0,0 0.305,-9.77 5.19,1.527 0,9.159 L 0,0 Z" style="fill:#5b6a76;fill-opacity:1;fill-rule:nonzero;stroke:none" inkscape:connector-curvature="0"/>
      </g>
      <g id="g178" transform="matrix(1.0220676,0,0,-1.0473598,250.41181,852.75896)">
         <path id="path180" d="M 0,0 2.035,-94.44 -9.363,-110.722 -18.318,-93.625 -5.292,0.407 0,0 Z" style="fill:#e1d0ac;fill-opacity:1;fill-rule:nonzero;stroke:none" inkscape:connector-curvature="0"/>
      </g>
      <g id="g182" transform="matrix(1.0220676,0,0,-1.0473598,238.70127,832.7567)">
         <path id="path184" d="m 0,0 c 0,0 -4.135,-8.597 -3.947,-12.507 1.296,0.062 12.747,5.09 12.747,5.09 l 11.527,-10.085 c 0,0 9.32,8.846 8.243,17.753 2.158,-4.376 -1.708,-18.559 -6.759,-21.601 -5.238,0.869 -12.85,10.582 -12.85,10.582 l -17.852,-7.016 c 0,0 2.084,10.739 8.891,17.784" style="fill:#a38037;fill-opacity:1;fill-rule:nonzero;stroke:none" inkscape:connector-curvature="0"/>
      </g>
      <g id="g186" transform="matrix(1.0220676,0,0,-1.0473598,248.3316,851.90621)">
         <path id="path188" d="M 0,0 2.035,-94.44 -9.363,-110.722 -18.318,-93.625 -5.292,0.407 0,0 Z" style="fill:#a38037;fill-opacity:1;fill-rule:nonzero;stroke:none" inkscape:connector-curvature="0"/>
      </g>
      <g id="g190" transform="matrix(1.0220676,0,0,-1.0473598,230.35118,944.47753)">
         <path id="path192" d="M 0,0 19.464,1.517 18.187,60.759 8.677,62.636 0,0 Z" style="fill:#7e612e;fill-opacity:1;fill-rule:nonzero;stroke:none" inkscape:connector-curvature="0"/>
      </g>
      <g id="g194" transform="matrix(1.0220676,0,0,-1.0473598,239.80255,845.19127)">
         <path id="path196" d="M 0,0 3.664,-10.991 15.265,-3.969 7.022,2.442 0,0 Z" style="fill:#a38037;fill-opacity:1;fill-rule:nonzero;stroke:none" inkscape:connector-curvature="0"/>
      </g>
      <g id="g198" transform="matrix(1.0220676,0,0,-1.0473598,207.14258,986.63146)">
         <path id="path200" d="m 0,0 c 0,0 41.928,-9.77 71.237,1.221 l 0,-11.805 c 0,0 -43.149,-12.619 -70.83,1.221 L 0,0 Z" style="fill:#242c34;fill-opacity:1;fill-rule:nonzero;stroke:none" inkscape:connector-curvature="0"/>
      </g>
      <g id="g202" transform="matrix(1.0220676,0,0,-1.0473598,216.08772,988.12373)">
         <path id="path204" d="m 0,0 0.305,-12.823 4.885,-0.61 0,12.517 L 0,0 Z" style="fill:#283543;fill-opacity:1;fill-rule:nonzero;stroke:none" inkscape:connector-curvature="0"/>
      </g>
      <g id="g206" transform="matrix(1.0220676,0,0,-1.0473598,265.38959,989.08301)">
         <path id="path208" d="m 0,0 -0.305,-12.823 -4.885,-0.61 0,12.517 L 0,0 Z" style="fill:#283543;fill-opacity:1;fill-rule:nonzero;stroke:none" inkscape:connector-curvature="0"/>
      </g>
      <g id="g4467" transform="matrix(1.2081453,0,0,1.1119137,-215.86676,440.28523)">
         <g id="text4427" style="font-style:normal;font-variant:normal;font-weight:normal;font-stretch:semi-condensed;font-size:8.67360401px;line-height:80.00000119%;font-family:Akkadian;-inkscape-font-specification:'Akkadian, Semi-Condensed';text-align:center;letter-spacing:0px;word-spacing:0px;writing-mode:lr-tb;text-anchor:middle;fill:#ffffff;fill-opacity:1;stroke:none;stroke-width:1px;stroke-linecap:butt;stroke-linejoin:miter;stroke-opacity:1" transform="matrix(-0.08869964,1.0526202,-0.94331213,-0.07948874,0,0)">
            <path id="path4451" d="m 359.40671,-437.24142 c 0,0.2287 -0.11717,0.34305 -0.35152,0.34305 -0.0847,0 -0.19481,-0.0423 -0.33034,-0.12706 -0.13553,-0.0847 -0.24141,-0.12705 -0.31764,-0.12705 -0.12705,0 -0.24705,0.0296 -0.35999,0.0889 -0.13835,0.0706 -0.20752,0.16234 -0.20752,0.27528 0,0.14964 0.19482,0.42634 0.58445,0.83009 0.38963,0.40375 0.58445,0.73127 0.58445,0.98256 0,0.0565 -0.01,0.12282 -0.0296,0.19905 -0.0847,0.33034 -0.27529,0.62257 -0.57175,0.87668 -0.30775,0.26258 -0.6268,0.39387 -0.95715,0.39387 -0.19481,0 -0.36281,-0.0438 -0.50398,-0.13129 -0.16658,-0.10447 -0.24987,-0.24846 -0.24987,-0.43199 0,-0.23999 -0.92267,-1.06771 -0.72786,-1.06771 0.10165,0 1.25019,0.77407 1.40548,0.90678 0.15529,0.12987 0.29223,0.19481 0.41081,0.19481 0.15247,0 0.29646,-0.048 0.43199,-0.14399 0.14682,-0.10729 0.22023,-0.23294 0.22023,-0.37693 0,-0.13553 -0.10164,-0.3134 -0.30493,-0.53363 -0.18917,-0.20611 -0.37835,-0.41081 -0.56752,-0.6141 -0.20329,-0.25693 -0.30493,-0.4941 -0.30493,-0.71151 0,-0.0226 0.008,-0.0734 0.0254,-0.15246 0.0706,-0.32752 0.22729,-0.59575 0.47011,-0.80468 0.24564,-0.21176 0.53222,-0.31764 0.85973,-0.31764 0.1807,0 0.34587,0.0311 0.49552,0.0932 0.19764,0.0819 0.29646,0.20046 0.29646,0.35575 z" inkscape:connector-curvature="0" sodipodi:nodetypes="cscscsssccscsscscsccsccsccc"/>
            <path id="path4453" d="m 363.46822,-434.79774 q 0,0.0254 -0.0339,0.0762 -0.26681,0.39387 -0.60986,0.73692 -0.4701,0.4701 -0.76656,0.4701 -0.35999,0 -0.35999,-0.46587 0,-0.36846 0.22023,-1.04608 -0.41081,0.57598 -0.86398,0.97408 -0.6268,0.54634 -1.12655,0.54634 -0.21176,0 -0.34305,-0.15247 -0.13129,-0.1567 -0.13129,-0.36846 0,-1.12231 1.03338,-2.20228 1.03762,-1.0842 2.05829,-1.0842 0.11011,0 0.21599,0.0169 0.0466,-0.13129 0.0974,-0.26681 0.0805,-0.16517 0.19058,-0.16517 0.36846,0 0.36846,0.13976 0,0.0296 -0.008,0.055 -0.30493,0.81315 -0.60986,1.62207 -0.42352,1.17314 -0.42352,1.56701 0,0.16517 0.10165,0.16517 0.17364,0 0.48704,-0.40234 0.3134,-0.40234 0.34305,-0.40234 0.0339,0 0.0974,0.0762 0.0635,0.0762 0.0635,0.11011 z m -1.04608,-1.7957 q 0,-0.19482 -0.32611,-0.19482 -0.59715,0 -1.30866,0.80892 -0.70727,0.80468 -0.70727,1.49924 0,0.32187 0.30493,0.32187 0.3854,0 1.21973,-1.02067 0.81738,-1.00373 0.81738,-1.41454 z" inkscape:connector-curvature="0"/>
            <path id="path4455" d="m 367.72879,-436.61038 q 0,0.33457 -0.10164,0.67339 -0.25834,0.85973 -0.97832,1.63477 -0.74115,0.79621 -1.3002,0.79621 -0.39386,0 -0.61833,-0.30493 l -0.47434,1.639 q -0.0381,0.13129 -0.0381,0.22447 0,0.24564 0.30916,0.28375 0.30917,0.0381 0.30917,0.0932 0,0.0847 -0.0466,0.18211 -0.0593,0.11011 -0.13552,0.11011 0.0169,0 -0.25835,-0.0296 -0.27528,-0.0297 -0.55057,-0.0297 -0.28375,0 -0.57598,0.0297 -0.29222,0.0296 -0.28375,0.0296 -0.0889,0 -0.0889,-0.0889 0,-0.0678 0.0508,-0.18211 0.0381,-0.0847 0.17364,-0.10588 0.16941,-0.0254 0.24988,-0.0847 0.15246,-0.11859 0.24564,-0.44469 l 1.36795,-4.75609 q -0.46163,0.11859 -0.94444,0.33882 -0.0169,0.008 -0.0466,0.008 -0.0593,0 -0.10587,-0.0635 -0.0466,-0.0678 -0.0466,-0.12705 0,-0.072 0.0635,-0.12282 0.20752,-0.16094 1.21125,-0.47434 l 0.19905,-0.67339 q 0.0466,-0.16094 0.13553,-0.19058 0.0296,-0.0127 0.23717,-0.0127 0.0212,0 0.0635,-0.004 0.0424,0 0.0635,0 0.16094,0 0.16094,0.11011 0,0.0847 -0.16094,0.59292 0.58022,-0.13129 0.99103,-0.13129 0.43622,0 0.69033,0.33034 0.23293,0.3007 0.23293,0.74963 z m -0.72421,0.23717 q 0,-0.33035 -0.16093,-0.54634 -0.17788,-0.2414 -0.49552,-0.2414 -0.27528,0 -0.66492,0.0678 l -0.72844,2.51568 q -0.0212,0.072 -0.0212,0.17788 0,0.52516 0.3981,0.52516 0.35576,0 0.86821,-0.63951 0.51246,-0.64374 0.71998,-1.35949 0.0847,-0.29646 0.0847,-0.49974 z" inkscape:connector-curvature="0"/>
            <path id="path4457" d="m 372.09524,-436.77132 q 0,0.64375 -0.29646,1.36372 -0.27529,0.66916 -0.71998,1.19855 -0.58868,0.70304 -1.02491,0.70304 -0.43622,0 -0.43622,-0.36423 0,-0.16093 0.10588,-0.27952 0.10588,-0.12282 0.26258,-0.12282 0.16094,0 0.25835,0.10165 0.10164,0.10164 0.13552,0.10164 0.12282,0 0.3007,-0.26681 0.25834,-0.39387 0.46587,-1.05456 0.21175,-0.66492 0.21175,-1.12231 0,-0.59293 -0.30493,-0.59293 -0.59716,0 -1.45266,1.28749 -0.70727,1.06303 -0.96138,1.86771 -0.0381,0.12282 -0.0762,0.24987 -0.0635,0.12706 -0.20329,0.12706 -0.41504,0 -0.41504,-0.19482 0,-0.0212 0.0254,-0.11012 l 1.63053,-5.62429 q 0.0297,-0.10164 0.0297,-0.19481 0,-0.216 -0.26258,-0.28799 -0.26258,-0.072 -0.26258,-0.11859 0,-0.19058 0.1567,-0.25834 0.2287,-0.0254 0.57598,-0.0762 0.0212,-0.004 0.30493,-0.0847 0.27105,-0.0762 0.27105,-0.0762 0.12282,0 0.12282,0.0974 0,0.0296 -0.0423,0.17364 l -1.33407,4.59091 q 1.22396,-1.95241 2.22345,-1.95241 0.71151,0 0.71151,0.91903 z" inkscape:connector-curvature="0"/>
            <path id="path4459" d="m 374.8608,-439.57076 q 0,0.18211 -0.12705,0.30917 -0.12282,0.12282 -0.30494,0.12282 -0.18211,0 -0.30916,-0.12706 -0.12706,-0.12705 -0.12706,-0.30493 0,-0.18211 0.12706,-0.30917 0.12705,-0.12705 0.30916,-0.12705 0.17788,0 0.30494,0.12705 0.12705,0.12706 0.12705,0.30917 z m -0.13553,4.78997 q 0,0.0381 -0.0169,0.0678 -0.22446,0.39387 -0.69456,0.77503 -0.5294,0.43199 -0.91056,0.43199 -0.44469,0 -0.44469,-0.39387 0,-0.20329 0.12705,-0.53787 l 0.81739,-2.15569 q 0.072,-0.19058 0.072,-0.30917 0,-0.11435 -0.0974,-0.11435 -0.13553,0 -0.37693,0.20752 -0.24141,0.20753 -0.25835,0.20753 -0.0423,0 -0.11011,-0.0678 -0.0678,-0.072 -0.0678,-0.11434 0,-0.0508 0.0339,-0.0932 0.22023,-0.27105 0.57174,-0.51669 0.41928,-0.29646 0.69033,-0.29646 0.37693,0 0.37693,0.34305 0,0.25411 -0.19481,0.77503 l -0.73692,1.96512 q -0.0847,0.22446 -0.0847,0.3134 0,0.12705 0.13129,0.12705 0.25411,0 0.61409,-0.39387 0.36423,-0.39387 0.37693,-0.39387 0.0381,0 0.11012,0.0678 0.072,0.0678 0.072,0.10588 z" inkscape:connector-curvature="0"/>
            <path id="path4461" d="m 379.727,-440.50673 q 0,0.0297 -0.008,0.0635 l -1.52466,5.92499 q -0.0212,0.0805 -0.0212,0.17364 0,0.16517 0.13129,0.16517 0.17364,0 0.49128,-0.42352 0.32187,-0.42775 0.33881,-0.42775 0.0381,0 0.10165,0.0635 0.0635,0.0635 0.0635,0.10164 0,0.0339 -0.0127,0.0593 -0.18635,0.36846 -0.56751,0.78774 -0.4574,0.50399 -0.75809,0.50399 -0.40234,0 -0.40234,-0.50822 0,-0.19905 0.21599,-1.11808 -0.3854,0.60562 -0.82162,1.03761 -0.60987,0.59716 -1.10961,0.59716 -0.36423,0 -0.58446,-0.38117 -0.18211,-0.32187 -0.18211,-0.71574 0,-0.9995 0.77504,-2.0117 0.83009,-1.07573 1.7957,-1.07573 0.41928,0 0.68186,0.25411 l 0.54634,-2.27851 q 0.0127,-0.0508 0.0127,-0.11012 0,-0.16093 -0.20328,-0.21176 -0.19906,-0.055 -0.19906,-0.0974 0,-0.23717 0.3727,-0.27529 0.0805,-0.004 0.24564,-0.0297 0.13129,-0.0296 0.33458,-0.10164 l 0.16517,-0.0593 q 0.12282,0 0.12282,0.0932 z m -1.65595,3.74388 q 0,-0.22446 -0.11859,-0.3854 -0.13129,-0.17787 -0.34728,-0.17787 -0.45316,0 -0.96985,0.64374 -0.33881,0.42352 -0.57175,0.96985 -0.25411,0.60139 -0.25411,1.0842 0,0.58869 0.41929,0.58869 0.48704,0 1.18584,-1.12232 0.65645,-1.05879 0.65645,-1.60089 z" inkscape:connector-curvature="0"/>
            <path id="path4463" d="m 382.93301,-436.93225 q 0,0.75385 -0.91479,1.13502 -0.53363,0.22446 -1.55854,0.34728 -0.0423,0.29646 -0.0423,0.53363 0,0.88091 0.86397,0.88091 0.27529,0 0.59716,-0.29222 0.3261,-0.29223 0.30916,-0.29223 0.0339,0 0.11435,0.0762 0.0805,0.0762 0.0805,0.11012 0,0.0381 -0.0296,0.0762 -0.63104,0.85127 -1.46537,0.85127 -0.5421,0 -0.87668,-0.38117 -0.31763,-0.36422 -0.31763,-0.91479 0,-1.14349 0.70303,-2.01594 0.70727,-0.87244 1.63901,-0.87244 0.37269,0 0.62257,0.19058 0.27528,0.20753 0.27528,0.56752 z m -0.63104,0.055 q 0,-0.44469 -0.36422,-0.44469 -0.4574,0 -0.88091,0.55057 -0.32611,0.42352 -0.50822,0.96562 1.75335,-0.20329 1.75335,-1.0715 z" inkscape:connector-curvature="0"/>
            <path id="path4465" d="m 387.56627,-437.00849 c 0,0.76798 0.28033,2.85846 -0.27871,3.6349 -0.57033,0.79056 -1.69063,-0.13242 -2.2412,-0.13242 -0.28235,0 -0.51246,-0.0932 -0.69034,-0.27952 -0.17505,-0.18635 -0.26258,-0.42069 -0.26258,-0.70304 0,-0.76515 0.34587,-1.59666 1.03762,-2.49451 l -0.9995,0 c -0.12141,0 -0.2287,0.0395 -0.32187,0.11859 -0.0904,0.0762 -0.13553,0.17505 -0.13553,0.29646 0,0.0339 0.0169,0.0918 0.0508,0.17364 0.0367,0.079 0.055,0.14399 0.055,0.19482 0,0.0847 -0.0311,0.16093 -0.0932,0.2287 -0.0593,0.0649 -0.13126,0.0974 -0.21599,0.0974 -0.21176,0 -0.31764,-0.12282 -0.31764,-0.36845 0,-0.18917 0.11011,-0.45881 0.33034,-0.80892 0.23435,-0.37269 0.43763,-0.55904 0.60986,-0.55904 0.096,0 0.24,0.008 0.43199,0.0254 0.19482,0.0141 0.34023,0.0212 0.43622,0.0212 0.0875,0 0.21882,-0.007 0.39387,-0.0212 0.17788,-0.0169 0.31058,-0.0254 0.39811,-0.0254 0.096,0 0.14399,0.0339 0.14399,0.10164 0,0.0254 -0.0169,0.0593 -0.0508,0.10165 -0.75103,0.93455 -1.12655,1.79994 -1.12655,2.59615 0,0.43199 0.16941,0.64798 0.50822,0.64798 0.41222,0 0.82444,-0.26117 1.23666,-0.78351 0.39811,-0.50539 0.59716,-1.04326 0.59716,-1.61359 0,-0.13553 -0.0706,-0.25835 -0.21176,-0.36846 -0.14117,-0.11011 -0.21176,-0.22023 -0.21176,-0.33034 0,-0.11859 0.0438,-0.22023 0.13129,-0.30493 0.0904,-0.0847 0.19482,-0.12706 0.31341,-0.12706 0.32187,0 0.4828,0.22729 0.4828,0.68186 z" inkscape:connector-curvature="0" sodipodi:nodetypes="ccscscscscscsscscscsscsscssscscc"/>
         </g>
      </g>
   </g>
   <g id="layer4" style="display:inline" inkscape:groupmode="layer" inkscape:label="xxx">
      <g id="g126" style="display:inline" transform="matrix(1.0220676,0,0,-1.0473598,54.917263,105.70618)">
         <path id="path128" d="m 0,0 33.38,0 c 0,0 16.282,-33.024 0,-58.618 L 0,-58.618 0,0 Z" style="fill:#5b6a76;fill-opacity:1;fill-rule:nonzero;stroke:none" inkscape:connector-curvature="0"/>
      </g>
      <g id="g130" style="display:inline" transform="matrix(1.0220676,0,0,-1.0473598,95.877743,130.48315)">
         <path id="path132" d="m 0,0 c -1.674,13.453 -6.697,23.657 -6.697,23.657 l -33.379,0 0,-9.874 C -29.798,10.087 -13.316,4.412 0,0" style="fill:#757e8f;fill-opacity:1;fill-rule:nonzero;stroke:none" inkscape:connector-curvature="0"/>
      </g>
      <g id="g134" style="display:inline" transform="matrix(1.0220676,0,0,-1.0473598,92.842513,116.04246)">
         <path id="path136" d="m 0,0 -37.106,9.536 0,-2.922 38.57,-12.039 C 1.004,-3.472 0.504,-1.653 0,0" style="fill:#5b6a76;fill-opacity:1;fill-rule:nonzero;stroke:none" inkscape:connector-curvature="0"/>
      </g>
      <g id="g138" style="display:inline" transform="matrix(1.0220676,0,0,-1.0473598,54.917263,146.99394)">
         <path id="path140" d="m 0,0 0,-19.197 33.379,0 c 4.352,6.84 6.363,14.207 6.996,21.336 L 0,0 Z" style="fill:#4c4f62;fill-opacity:1;fill-rule:nonzero;stroke:none" inkscape:connector-curvature="0"/>
      </g>
      <g id="g142" style="display:inline" transform="matrix(1.0220676,0,0,-1.0473598,54.917263,105.70618)">
         <path id="path144" d="M 0,0 C 0,0 -10.584,-29.309 0,-58.618 3.257,-57.804 17.911,-24.424 0,0" style="fill:#cfffff;fill-opacity:1;fill-rule:nonzero;stroke:none" inkscape:connector-curvature="0"/>
      </g>
   </g>
</svg>
